<?xml version="1.0" encoding="UTF-8"?>
<svg id="Layer_1" xmlns="http://www.w3.org/2000/svg" version="1.1" viewBox="0 0 2000 925">
  <defs>
    <style>
      .st0 { fill: #5aaadb; }
      .st1 { fill: #2f3d44; }
      .st2 { display: none; }
      .st2, .st3 { fill: #fefefe; }
    </style>
  </defs>
  <path class="st0" d="M1484.59,645c-20.53,13.27-42.99,19.08-66.76,21.74s-47.03,2.83-69.97-4.18c-22.66-6.93-43.86-18.99-60.93-35.38-50.76-48.71-62.14-122.97-29.84-185.3,12.08-23.32,29.43-43.64,51.06-58.52,29.38-20.21,63.86-27.22,98.99-27.29,17.68-.04,33.77,3.11,50.23,9.69,35.37,14.15,64.43,39.86,81.8,74,11.93,23.44,16.03,48.97,16.21,75.18.16,22.35-4.02,42.76-13.52,62.91-12.79,27.15-31.48,50.46-57.28,67.14Z"/>
  <path class="st0" d="M1828.21,460.53l.04,202.7-56.27-.03.02-198.07c-.81-16.17-6.51-30.48-16.3-42.74-7.82-9.79-18.43-14.36-30.7-15.94-13.39-1.72-26.06-.38-38.16,6.63-22.47,13.02-32.47,36.64-29.64,63.08l.04,187.04-55.99.02-.05-210.09c1.26-10.86,2.4-20.68,6.79-30.5,9.82-21.96,26.56-39.94,47-52.46,11.44-7,23.48-9.28,36.39-13.39l41.24.75c26.51,4.64,50.31,17.71,68.71,38.3,36.39-41.6,90.99-48.09,141.35-27.63,32.66,19.32,48.92,42.1,55.5,79.66l-.24,206.94c.4,3.16.91,5.34.22,8.4l-53.81-.03-.4-194.4c-.02-11.21-3.34-22.85-8.04-32.64-13.99-29.16-59.68-42.5-88.17-16.43-11.59,10.6-18.59,24.25-19.53,40.82Z"/>
  <path class="st1" d="M223.81,329.03c-4.69-12.92-10.69-23.21-20.63-32.27-8.43-7.68-17.21-14.18-28.05-18.02-23.19-8.23-51.63-7.7-73.29,4.15s-36.88,32.33-40.84,57.24l.02,323.16-59.99-.04.22-252.66.83-92.59c7.1-28.7,25.06-52.03,48.39-69.46,25.58-19.1,52.1-28.69,84.06-31.22,18.38-1.46,36.24,2.11,54.08,6.99,14.68,4.02,27.5,10.43,39.83,19.23,34.79,24.83,55.6,63.06,59.46,105.48,3.52,38.67-8.38,75.1-33.38,104.51-13.37,15.72-28.25,28.54-47.81,36.35-12.28,4.91-24.2,9.74-37.76,11.05l-87.19-.62v-56.6s82.83-.02,82.83-.02c25.1-6.42,43.99-23.68,56.04-46.21,11.39-21.3,11.54-45.43,3.18-68.45Z"/>
  <path class="st1" d="M555.62,583.86c11.48,13.75,24.66,23.06,41.49,28.25,11.28,3.48,22.4,6.17,34.33,5.5,17.4-.97,33.66-5.8,47.27-16.85,8.32-5.78,14.58-12.86,21.13-21.25l-.06,63.34c-35.97,26.87-89.82,32.15-131.27,15.54-15.88-6.36-29-15.96-41.74-27.32-20.95-18.67-37.44-41.69-45.53-68.92-10.15-34.13-9.47-69.9,1.46-103.57,4.87-15,12.17-28.17,21.05-40.99,8.88-12.83,20.46-22.65,32.64-32.15,28.97-22.58,68.23-28.57,104.59-28.35,25.33.15,48.35,6.6,70.35,18.4,10.25,5.5,19.27,10.3,27.89,18.4,22.94,21.56,38.35,49.24,41.99,81.16l.06,188.21-54,.06v-171.25c-1.99-39.54-29.58-71.6-67.45-81.08-14.63-3.66-27.83-3.46-42.87-2.53-25.52,1.58-49.86,11.07-65.43,32.11s-21.98,46.48-21.41,72.32c.11,4.95.83,9.1,1.24,13.63,1.98,21.61,10.19,40.47,24.28,57.33Z"/>
  <circle class="st0" cx="1282.64" cy="214.92" r="113.17"/>
  <path class="st1" d="M911.81,613.89l33.8-.36,40.4-.58v50.39s-91.94-.19-91.94-.19c-18.09-.04-41.7-13.47-53.62-26.58-14.31-15.74-20.56-35.14-21.33-56.79l-.15-299.89,56.81.03v79.03s111.7-.08,111.7-.08l.04,50.9h-110.58s.33,173.94.33,173.94c.02,9.25,5.45,17.87,12.12,22.7s14.23,5.65,22.43,7.49Z"/>
  <path class="st0" d="M1216.92,613.64l.1,49.57-53.99-.12-33.13-1.2c-22.34-4.86-43.67-13.07-62.18-26.58-34.85-25.43-60.68-66.94-62.6-110.22-1.94-43.65,8.87-79.18,36.82-112.21,12.78-15.1,26.71-27.92,43.57-38.35,18.99-10.05,39.04-15.73,60.67-17.54l72.06-.28v54.75s-75.07-.08-75.07-.08c-12.81,4.22-24.37,8.91-36.12,15.78-30.42,20.27-46.15,52.86-44.43,89.75,1.91,41.15,29.7,76.02,68,90.43,18.99,4.61,37.74,7.72,57.36,7.01,9.58.59,18.32.53,28.94-.72Z"/>
  <circle class="st1" cx="1053.16" cy="92.8" r="91.85"/>
  <path class="st1" d="M369.75,497.62l.02,165.66h-56.02s0-304.41,0-304.41l52.62-.04.45,37.07c15.23-21.99,37.34-33.71,62.61-37.48,12.17-1.82,23.68-3.89,35.81-.53v47.36s-18.7,1.3-18.7,1.3c-20.32,1.41-39.72,9.12-53.99,23.94-19.26,20.01-21.37,38.96-22.8,67.14Z"/>
  <circle class="st0" cx="811.22" cy="81.19" r="77.27"/>
  <path class="st0" d="M1593.29,876.18c11.32,12.42,27.3,16.98,43.31,16.32,15.33-1.3,28.97-7.4,40.53-18.21,7.27,7.67,12.01,16.52,16.95,26.07-17.99,16.17-48.4,26.05-72.19,22.75-22.96-3.18-44.05-13.02-58.5-31.47-22.2-28.35-22.38-73.49-.59-100.9,27-33.96,75.85-42.63,112.89-20.64,28.79,17.1,43.54,48.92,37.41,82.05l-120.53.28c-1.76-9.18-1.14-18-.25-27.04l87.67-.28c-8.28-31.03-44.13-46.34-72.2-31.27-12.68,6.81-21.14,18.55-26.3,31.73-4.18,17.64-.87,36.7,11.81,50.59Z"/>
  <path class="st0" d="M973.97,876.96l14.1,31.65c-37.35,19.65-87.08,20.61-122.29-3.43-12.4-8.46-21.44-19.79-29.95-31.97-7.32-10.49-12.43-21.49-14.47-34.33-2.59-16.34-3.38-32.41-1.16-48.88,5.38-40.09,31.54-73.41,69.41-87.34,33.2-11.66,69.45-7.82,100.01,10.06-6.27,9.93-11.16,19.32-15.42,30.28-15.35-10.6-32.07-15.95-50.2-15.1-18.23,1.33-35.11,8.26-47.42,21.53-23.9,25.76-29.54,61.46-16.95,93.91,7.65,19.72,21.46,35.06,41.74,42.35,23.94,8.97,50.27,5.86,72.59-8.73Z"/>
  <path class="st0" d="M1132.6,910.3c-31.6,18.82-71.84,16.85-101-4.68-22.59-16.67-33.45-41.92-31.65-69.61,1.92-29.43,17.71-54.55,44.06-68.06,21.16-10.84,44.96-12.2,67.98-6.04,26.03,6.97,45.72,24.9,55.01,50.03,13.69,37.06.25,77.72-34.4,98.36ZM1138.31,840.32c0-29.05-23.55-52.6-52.6-52.6s-52.6,23.55-52.6,52.6,23.55,52.6,52.6,52.6,52.6-23.55,52.6-52.6Z"/>
  <path class="st0" d="M1246.38,795.93c-8.16,5.18-14.71,12.92-14.89,22.68l-1.79,100.27c-10.81,1.13-21.48,1.27-32.69.01l.03-78.82,1.18-14.15c-2.2-23.93,9.15-46.51,31.06-57.81,22.15-11.43,48.73-12.84,72.46-4.94,25.1,8.36,41.02,30.56,42.38,56.9l.31,98.93h-32.51s-1.36-93.18-1.36-93.18c.56-9.95-2.47-18.92-9.79-25.6-15.08-13.75-36.71-15.5-54.39-4.28Z"/>
  <path class="st0" d="M1485.81,811.74c-11.9-24.08-41.81-29.91-63.02-15-9.54,6.7-15.48,16.2-14.47,28.34l-1.01,93.88-31.47.21-1.07-70.13c-1.71-34.25,1.82-67.97,35.57-82.85,37.68-16.61,91.11-7.83,106.86,32.45,3.11,7.95,3.46,15.85,4.08,24.46l-.66,96.29-31.01-.21.38-36.22.17-43.97c.04-9.16-.08-18.6-4.36-27.26Z"/>
  <path class="st0" d="M1864.54,876.67l13.54,28.93c-7.04,6.57-16.12,10.23-25.77,12.63-10.29,2.56-20.52,5.89-31.36,5.63l-21.71-3.44c-35.45-6.85-61.36-36.23-63.24-72.43-.64-12.29.17-24.27,4.28-35.99,7.76-22.13,25.25-38.97,47.19-47.46,29.93-11.58,63.18-7.26,90.42,10.33l-14.34,29.03c-22.88-18.67-55.43-22.09-77.82-2.13-15.99,14.25-21.7,36.51-14.26,56.74,6.99,19,25.08,32.75,46.5,33.5,17.04.6,32.7-4.2,46.56-15.36Z"/>
  <path class="st0" d="M1934.12,863.66c.08,11.67,7.15,23.85,18.91,24.98l45.48.89.04,29.35c-38.99,5.85-88.18,4.77-95.99-39.94l-.63-157.9,31.76-.47.38,40.13,61.63.44.31,28.54-62.43.79.53,73.19Z"/>
  <circle class="st1" cx="617.59" cy="174.01" r="55.31"/>
  <circle class="st0" cx="494.69" cy="287.13" r="36.28"/>
  <circle class="st3" cx="1085.7" cy="840.32" r="52.6"/>
</svg>
